<?xml version="1.0" standalone="no"?>
<!DOCTYPE svg PUBLIC "-//W3C//DTD SVG 20010904//EN"
 "http://www.w3.org/TR/2001/REC-SVG-20010904/DTD/svg10.dtd">
<svg version="1.0" xmlns="http://www.w3.org/2000/svg"
 width="1024.000000pt" height="1024.000000pt" viewBox="0 0 1024.000000 1024.000000"
 preserveAspectRatio="xMidYMid meet">
<metadata>
Created by potrace 1.11, written by Peter Selinger 2001-2013
</metadata>
<g transform="translate(0.000000,1024.000000) scale(0.100000,-0.100000)"
fill="#000000" stroke="none">
<path d="M5048 9465 c-2 -1 -52 -5 -113 -9 -130 -7 -142 -9 -310 -42 -220 -43
-465 -134 -677 -251 -76 -41 -286 -177 -298 -192 -3 -3 -39 -33 -80 -65 -344
-273 -651 -724 -786 -1156 -25 -78 -60 -218 -69 -273 -3 -18 -7 -43 -10 -57
-34 -182 -39 -572 -10 -728 1 -9 6 -42 10 -72 4 -30 13 -80 20 -110 8 -30 16
-67 18 -81 8 -43 66 -226 82 -256 8 -15 15 -34 15 -41 0 -17 97 -219 146 -303
272 -471 670 -832 1159 -1051 191 -86 369 -137 640 -183 103 -17 379 -23 545
-11 660 46 1326 420 1742 976 242 325 398 684 458 1060 6 41 13 86 16 100 7
47 17 235 16 315 -2 183 -24 377 -57 515 -8 30 -16 66 -19 80 -40 214 -256
659 -411 847 -5 7 -15 18 -20 25 -86 110 -130 160 -222 250 -387 383 -871 622
-1403 694 -80 11 -375 25 -382 19z"/>
<path d="M2845 4029 c-115 -6 -196 -14 -260 -24 -358 -61 -655 -187 -950 -405
-138 -102 -233 -192 -367 -347 -179 -207 -348 -534 -422 -815 -61 -235 -71
-330 -71 -703 0 -275 1 -294 24 -370 52 -178 131 -294 292 -430 87 -73 236
-136 365 -155 93 -13 7309 -10 7359 3 144 38 217 71 310 139 168 124 282 297
321 488 24 119 24 612 0 748 -2 9 -7 40 -11 67 -18 127 -91 381 -142 495 -108
242 -249 457 -418 639 -78 84 -256 233 -368 308 -177 118 -499 265 -629 288
-17 3 -34 8 -38 10 -3 2 -17 6 -31 9 -13 2 -49 10 -79 16 -30 6 -71 13 -90 16
-19 3 -46 7 -60 10 -70 11 -251 16 -712 16 l-508 1 -87 -36 c-220 -89 -436
-155 -597 -182 -16 -2 -52 -9 -80 -14 -227 -44 -618 -49 -887 -11 -261 37
-509 106 -745 207 l-80 35 -460 1 c-252 1 -513 -1 -579 -4z"/>
</g>
</svg>
